<svg width="250" height="220" viewBox="0 0 250 220" fill="none" xmlns="http://www.w3.org/2000/svg">
<g clip-path="url(#clip0_6_16)">
<path d="M136.354 211.747C136.154 211.756 135.956 211.704 135.786 211.597C135.617 211.489 135.485 211.333 135.407 211.148C135.33 210.963 135.311 210.758 135.354 210.562C135.397 210.367 135.498 210.188 135.646 210.052L135.713 209.786C135.704 209.765 135.695 209.743 135.686 209.722C135.484 209.245 135.146 208.839 134.714 208.554C134.282 208.269 133.775 208.118 133.258 208.12C132.74 208.122 132.235 208.277 131.805 208.565C131.375 208.853 131.04 209.262 130.842 209.74C130.049 211.648 129.04 213.559 128.792 215.577C128.683 216.469 128.729 217.373 128.928 218.249C127.068 214.19 126.101 209.778 126.095 205.313C126.095 204.192 126.157 203.073 126.281 201.959C126.384 201.046 126.527 200.14 126.71 199.24C127.708 194.358 129.849 189.781 132.959 185.887C134.464 185.066 135.681 183.803 136.446 182.269C136.724 181.717 136.92 181.129 137.028 180.521C136.858 180.543 136.388 177.958 136.516 177.799C136.279 177.44 135.856 177.262 135.598 176.911C134.312 175.169 132.542 175.473 131.617 177.841C129.643 178.838 129.623 180.49 130.835 182.08C131.606 183.091 131.712 184.459 132.388 185.542C132.319 185.631 132.246 185.717 132.177 185.806C130.905 187.442 129.796 189.198 128.867 191.05C129.093 188.975 128.823 186.877 128.08 184.927C127.326 183.11 125.914 181.579 124.671 180.008C123.177 178.121 120.114 178.945 119.851 181.337C119.848 181.36 119.846 181.383 119.843 181.406C120.028 181.51 120.209 181.621 120.386 181.738C120.608 181.886 120.78 182.098 120.88 182.346C120.979 182.594 121.002 182.867 120.944 183.128C120.886 183.389 120.751 183.626 120.556 183.809C120.361 183.991 120.115 184.111 119.851 184.152L119.824 184.156C119.89 184.821 120.006 185.481 120.172 186.129C118.577 192.298 122.021 194.544 126.938 194.645C127.047 194.701 127.153 194.757 127.261 194.81C126.327 197.455 125.742 200.211 125.519 203.008C125.393 204.659 125.4 206.316 125.541 207.965L125.533 207.907C125.176 206.073 124.198 204.419 122.763 203.223C120.632 201.472 117.621 200.828 115.322 199.42C115.077 199.264 114.793 199.18 114.503 199.179C114.212 199.178 113.928 199.261 113.683 199.416C113.438 199.572 113.242 199.795 113.119 200.058C112.996 200.321 112.951 200.614 112.99 200.901C112.993 200.922 112.996 200.942 112.999 200.963C113.342 201.102 113.676 201.263 113.998 201.444C114.183 201.549 114.364 201.659 114.541 201.776C114.763 201.925 114.935 202.137 115.035 202.385C115.134 202.633 115.157 202.905 115.099 203.166C115.041 203.427 114.906 203.664 114.711 203.847C114.516 204.03 114.27 204.149 114.006 204.19L113.979 204.194C113.959 204.197 113.943 204.2 113.923 204.202C114.509 205.601 115.331 206.888 116.353 208.007C117.35 213.392 121.635 213.903 126.217 212.335H126.22C126.723 214.519 127.452 216.646 128.394 218.68H136.16C136.188 218.594 136.213 218.505 136.238 218.418C135.519 218.464 134.797 218.421 134.089 218.29C134.665 217.583 135.241 216.871 135.817 216.164C135.83 216.151 135.842 216.137 135.854 216.122C136.146 215.761 136.441 215.402 136.733 215.04L136.733 215.039C136.749 213.93 136.621 212.824 136.354 211.747Z" fill="#F2F2F2"/>
<path d="M124.849 88.9706C116.099 88.9706 107.545 86.3763 100.27 81.5156C92.9947 76.655 87.3243 69.7464 83.9759 61.6634C80.6274 53.5805 79.7513 44.6862 81.4583 36.1054C83.1654 27.5246 87.3788 19.6426 93.566 13.4562C99.7531 7.2698 107.636 3.05679 116.218 1.34997C124.8 -0.356863 133.695 0.519143 141.779 3.86721C149.863 7.21527 156.772 12.885 161.633 20.1595C166.494 27.4339 169.089 35.9864 169.089 44.7353C169.076 56.4632 164.41 67.7069 156.117 75.9997C147.823 84.2926 136.578 88.9573 124.849 88.9706ZM124.849 1.19662C116.237 1.19662 107.818 3.75012 100.657 8.53421C93.4963 13.3183 87.9152 20.1181 84.6195 28.0738C81.3238 36.0294 80.4615 44.7836 82.1416 53.2293C83.8218 61.675 87.9689 69.4328 94.0586 75.5218C100.148 81.6108 107.907 85.7575 116.354 87.4374C124.8 89.1174 133.556 88.2551 141.512 84.9598C149.469 81.6645 156.269 76.084 161.054 68.9241C165.839 61.7642 168.392 53.3464 168.392 44.7353C168.379 33.1921 163.787 22.1255 155.624 13.9632C147.461 5.80095 136.393 1.20966 124.849 1.19662Z" fill="#F2F2F2"/>
<path d="M129.703 60.7575H120.297C119.835 60.7575 119.392 60.5741 119.066 60.2474C118.739 59.9208 118.556 59.4779 118.556 59.016C118.556 58.5541 118.739 58.1111 119.066 57.7845C119.392 57.4579 119.835 57.2744 120.297 57.2744H129.703C130.165 57.2744 130.608 57.4579 130.934 57.7845C131.261 58.1111 131.444 58.5541 131.444 59.016C131.444 59.4779 131.261 59.9208 130.934 60.2474C130.608 60.5741 130.165 60.7575 129.703 60.7575Z" fill="#E6E6E6"/>
<path d="M131.863 111.303H118.137C117.462 111.303 116.816 111.035 116.339 110.559C115.862 110.082 115.595 109.436 115.595 108.761C115.595 108.087 115.862 107.441 116.339 106.964C116.816 106.488 117.462 106.22 118.137 106.22H131.863C132.538 106.22 133.184 106.488 133.661 106.964C134.138 107.441 134.405 108.087 134.405 108.761C134.405 109.436 134.138 110.082 133.661 110.559C133.184 111.035 132.538 111.303 131.863 111.303Z" fill="#EC058E"/>
<path d="M170.882 100.65H79.118C78.3004 100.649 77.5165 100.323 76.9384 99.7453C76.3602 99.1672 76.035 98.3834 76.0341 97.5659V70.2116C76.035 69.394 76.3602 68.6102 76.9384 68.0322C77.5165 67.4541 78.3004 67.1289 79.118 67.1279H170.882C171.7 67.1289 172.483 67.4541 173.062 68.0322C173.64 68.6102 173.965 69.394 173.966 70.2116V97.5659C173.965 98.3834 173.64 99.1672 173.062 99.7453C172.483 100.323 171.7 100.649 170.882 100.65Z" fill="#E6E6E6"/>
<path d="M161.966 98.5696H81.1987C80.3811 98.5686 79.5972 98.2434 79.0191 97.6654C78.4409 97.0873 78.1157 96.3035 78.1147 95.4859V72.2932C78.1157 71.4757 78.4409 70.6919 79.0191 70.1138C79.5972 69.5357 80.3811 69.2105 81.1987 69.2096H168.802C169.619 69.2105 170.403 69.5357 170.981 70.1138C171.56 70.6919 171.885 71.4757 171.886 72.2932V88.6509C171.883 91.2806 170.837 93.8017 168.977 95.6612C167.117 97.5207 164.596 98.5666 161.966 98.5696Z" fill="white"/>
<path d="M134.106 77.458H97.2239C97.0129 77.458 96.8106 77.3742 96.6614 77.2251C96.5123 77.076 96.4285 76.8737 96.4285 76.6627C96.4285 76.4518 96.5123 76.2496 96.6614 76.1004C96.8106 75.9513 97.0129 75.8675 97.2239 75.8675H134.106C134.317 75.8675 134.519 75.9513 134.668 76.1004C134.818 76.2496 134.901 76.4518 134.901 76.6627C134.901 76.8737 134.818 77.076 134.668 77.2251C134.519 77.3742 134.317 77.458 134.106 77.458Z" fill="#EC058E"/>
<path d="M152.776 80.7107H97.2239C97.0129 80.7107 96.8106 80.6269 96.6614 80.4778C96.5123 80.3287 96.4285 80.1264 96.4285 79.9155C96.4285 79.7045 96.5123 79.5023 96.6614 79.3531C96.8106 79.204 97.0129 79.1202 97.2239 79.1202H152.776C152.987 79.1202 153.19 79.204 153.339 79.3531C153.488 79.5023 153.572 79.7045 153.572 79.9155C153.572 80.1264 153.488 80.3287 153.339 80.4778C153.19 80.6269 152.987 80.7107 152.776 80.7107Z" fill="#E6E6E6"/>
<path d="M152.776 84.4444H97.2239C97.1193 84.4446 97.0157 84.4242 96.919 84.3843C96.8223 84.3444 96.7344 84.2859 96.6604 84.212C96.5863 84.1382 96.5276 84.0504 96.4875 83.9538C96.4474 83.8572 96.4268 83.7537 96.4268 83.6491C96.4268 83.5445 96.4474 83.441 96.4875 83.3444C96.5276 83.2478 96.5863 83.16 96.6604 83.0862C96.7344 83.0123 96.8223 82.9537 96.919 82.9139C97.0157 82.874 97.1193 82.8536 97.2239 82.8538H152.776C152.987 82.8543 153.189 82.9382 153.338 83.0873C153.486 83.2364 153.57 83.4385 153.57 83.6491C153.57 83.8597 153.486 84.0618 153.338 84.2108C153.189 84.3599 152.987 84.4439 152.776 84.4444Z" fill="#E6E6E6"/>
<path d="M152.776 88.178H97.2239C97.1193 88.1782 97.0157 88.1578 96.919 88.118C96.8223 88.0781 96.7344 88.0195 96.6604 87.9457C96.5863 87.8718 96.5276 87.7841 96.4875 87.6875C96.4474 87.5909 96.4268 87.4873 96.4268 87.3827C96.4268 87.2782 96.4474 87.1746 96.4875 87.078C96.5276 86.9814 96.5863 86.8937 96.6604 86.8198C96.7344 86.7459 96.8223 86.6874 96.919 86.6475C97.0157 86.6077 97.1193 86.5872 97.2239 86.5875H152.776C152.987 86.5879 153.189 86.6719 153.338 86.821C153.486 86.9701 153.57 87.1721 153.57 87.3827C153.57 87.5934 153.486 87.7954 153.338 87.9445C153.189 88.0936 152.987 88.1776 152.776 88.178Z" fill="#E6E6E6"/>
<path d="M152.776 91.9117H97.2239C97.1193 91.9119 97.0157 91.8915 96.919 91.8516C96.8223 91.8117 96.7344 91.7532 96.6604 91.6793C96.5863 91.6054 96.5276 91.5177 96.4875 91.4211C96.4474 91.3245 96.4268 91.221 96.4268 91.1164C96.4268 91.0118 96.4474 90.9083 96.4875 90.8117C96.5276 90.7151 96.5863 90.6273 96.6604 90.5534C96.7344 90.4796 96.8223 90.421 96.919 90.3812C97.0157 90.3413 97.1193 90.3209 97.2239 90.3211H152.776C152.987 90.3215 153.189 90.4055 153.338 90.5546C153.486 90.7037 153.57 90.9057 153.57 91.1164C153.57 91.327 153.486 91.529 153.338 91.6781C153.189 91.8272 152.987 91.9112 152.776 91.9117Z" fill="#E6E6E6"/>
<path d="M201.586 215.001L197.858 215.001L196.085 200.624L201.587 200.624L201.586 215.001Z" fill="#A0616A"/>
<path d="M201.717 218.89L190.254 218.89V218.745C190.254 217.561 190.724 216.427 191.561 215.59C192.397 214.753 193.532 214.283 194.716 214.283L196.81 212.695L200.717 214.283L201.718 214.284L201.717 218.89Z" fill="#2F2E41"/>
<path d="M232.063 210.229L228.723 211.883L220.75 199.788L225.68 197.346L232.063 210.229Z" fill="#A0616A"/>
<path d="M233.907 213.655L223.635 218.743L223.571 218.613C223.046 217.553 222.963 216.328 223.341 215.206C223.72 214.085 224.528 213.16 225.588 212.635L226.759 210.282L230.965 209.971L231.862 209.527L233.907 213.655Z" fill="#2F2E41"/>
<path d="M190.543 137.721C190.543 137.721 186.299 143.636 189.362 153.855C192.425 164.074 190.706 173.21 191.565 175.042C192.425 176.874 194.156 178.614 192.726 180.003C191.296 181.392 190.543 182.521 191.672 182.898C192.802 183.274 196.567 209.627 196.567 209.627L202.967 210.003C202.967 210.003 205.286 197.762 202.809 187.883C202.809 187.883 203.353 180.711 202.219 178.604C201.085 176.498 201.307 178.398 201.384 175.754C201.427 173.841 201.706 171.942 202.214 170.098C202.591 168.592 202.809 153.415 202.809 153.415L209.04 173.555C209.29 174.249 209.384 174.99 209.315 175.724C209.161 176.762 209.159 178.312 209.348 178.854C209.537 179.397 209.748 179.511 209.642 180.583C209.537 181.656 222.078 204.261 222.078 204.261L228.309 200.081L222.17 180.262C221.56 179.587 221.053 178.826 220.664 178.004C219.911 176.498 219.881 176.415 220.272 175.327C220.664 174.239 220.664 172.119 220.664 171.485C220.664 170.851 221.055 142.052 216.153 137.816C211.251 133.58 190.543 137.721 190.543 137.721Z" fill="#2F2E41"/>
<path d="M213.56 91.9044L212.284 88.274L208.801 84.7909L202.375 84.0238L198.192 86.7736L194.318 90.5924L188.597 138.082C188.597 138.082 215.623 148.501 219.164 139.757L213.56 91.9044Z" fill="#CCCCCC"/>
<path d="M215.751 91.9044L211.997 88.151C211.997 88.151 210.204 112.14 210.968 113.827C211.732 115.514 212.631 115.083 211.659 115.995C210.687 116.907 209.642 116.002 210.687 117.674C211.303 118.611 211.605 119.72 211.549 120.84C211.549 120.84 216.957 154.873 220.092 154.873C223.227 154.873 225.19 153.955 225.08 153.021C224.969 152.087 223.12 149.76 223.696 149.182C224.272 148.603 225.693 149.04 224.286 147.951C222.879 146.862 222.182 147.21 222.531 145.817C222.879 144.424 220.216 126.362 220.216 126.362L219.956 96.1941L215.751 91.9044Z" fill="#3F3D56"/>
<path d="M198.192 86.7736L193.331 87.4614L187.552 89.6672C187.552 89.6672 190.191 119.441 189.64 120.438C189.089 121.435 188.11 120.813 188.948 121.821C189.786 122.829 190.54 122.382 189.64 123.302C188.741 124.222 187.227 123.056 188.158 124.684C189.089 126.312 184.602 148.723 185.81 149.925C187.018 151.127 190.131 150.379 190.133 149.491C190.037 148.534 189.676 147.623 189.089 146.862C188.921 146.669 188.828 146.421 188.828 146.165C188.828 145.909 188.921 145.662 189.089 145.469C189.583 144.994 189.922 144.381 190.062 143.711C190.134 143.03 190.666 142.194 190.923 141.567C191.179 140.941 197.638 98.5196 197.638 98.5196L198.192 86.7736Z" fill="#3F3D56"/>
<path d="M177.449 110.217L179.642 109.073C176.904 106.604 170.112 102.564 170.112 102.564L158.405 94.6729C158.234 94.2695 157.959 93.9184 157.609 93.6548C157.259 93.3913 156.845 93.2247 156.41 93.1717C155.975 93.1188 155.534 93.1814 155.13 93.3533C154.727 93.5251 154.376 93.8001 154.113 94.1507C153.85 94.5012 153.684 94.9149 153.631 95.35C153.579 95.7852 153.642 96.2264 153.814 96.6294C153.987 97.0324 154.262 97.3829 154.613 97.6456C154.964 97.9083 155.378 98.0739 155.813 98.1258L168.933 109.878L177.449 110.217Z" fill="#A0616A"/>
<path d="M193.474 101.51L193.497 91.8845L188.15 89.3273L174.663 103.6L173.618 102.903H171.179L165.257 109.869C165.257 109.869 168.411 111.738 169.969 110.978C171.527 110.217 171.381 111.31 171.381 111.31C171.612 111.601 171.934 111.805 172.296 111.89C172.657 111.975 173.037 111.936 173.373 111.779C174.663 111.262 177.101 112.656 177.101 112.656L193.474 101.51Z" fill="#3F3D56"/>
<path d="M206.291 81.8128C210.597 81.8128 214.089 78.3218 214.089 74.0154C214.089 69.709 210.597 66.218 206.291 66.218C201.984 66.218 198.492 69.709 198.492 74.0154C198.492 78.3218 201.984 81.8128 206.291 81.8128Z" fill="#A0616A"/>
<path d="M215.704 75.9951C214.968 77.4357 213.98 78.7329 212.787 79.8255C212.444 80.2148 212.007 80.5094 211.518 80.6811C211.272 80.7613 211.005 80.7527 210.765 80.6568C210.525 80.5609 210.326 80.3837 210.203 80.1562L210.058 79.9588C210.476 79.831 210.87 79.636 211.226 79.3814C211.402 79.2532 211.545 79.0848 211.643 78.8901C211.742 78.6954 211.792 78.48 211.79 78.262C211.778 78.044 211.681 77.8395 211.521 77.6914C211.36 77.5432 211.149 77.463 210.93 77.4675C210.443 77.5254 210.008 78.0942 209.571 77.875C209.219 77.6958 209.269 77.1826 209.371 76.7952C209.913 74.7732 209.686 71.6392 208.905 71.5296C208.128 71.3715 207.388 71.0687 206.724 70.637C206.058 70.2046 205.315 69.9057 204.536 69.757C204.48 69.7496 204.422 69.7456 204.362 69.7407C204.34 69.3238 204.267 68.9111 204.146 68.5116C204.061 68.9335 203.932 69.3451 203.76 69.7395C203.084 69.8315 202.403 69.866 201.721 69.8425C200.995 69.7583 198.909 71.4496 198.894 71.2169C198.871 70.8 198.799 70.3873 198.677 69.9879C198.593 70.4097 198.463 70.8213 198.291 71.2157C198.283 71.2318 198.28 71.2454 198.272 71.2615C198.05 70.7207 197.987 70.1161 197.992 70.5676C197.526 67.6943 198.45 65.9644 200.809 64.2605C201.28 63.8847 201.838 63.6346 202.432 63.5337C202.729 63.4863 203.033 63.5161 203.315 63.6203C203.597 63.7244 203.847 63.8993 204.042 64.1282C204.947 63.6493 205.964 63.4212 206.988 63.4675C208.011 63.5139 209.003 63.833 209.862 64.3919C211.558 65.5283 212.896 66.2843 212.671 68.3164C214.278 68.4712 215.637 69.7625 216.145 71.2928C216.648 72.8256 216.387 74.536 215.704 75.9951Z" fill="#2F2E41"/>
<path d="M225.658 116.625L220.064 115.824C218.172 118.987 217.499 127.408 217.499 127.408L212.024 140.42C211.661 140.666 211.37 141.004 211.179 141.398C210.988 141.793 210.905 142.231 210.937 142.668C210.97 143.105 211.117 143.526 211.363 143.888C211.61 144.251 211.948 144.541 212.343 144.732C212.738 144.922 213.176 145.005 213.613 144.972C214.05 144.939 214.471 144.792 214.833 144.545C215.195 144.297 215.485 143.959 215.675 143.564C215.865 143.169 215.947 142.731 215.914 142.294L224.904 127.148L225.658 116.625Z" fill="#A0616A"/>
<path d="M212.777 97.2271L215.147 93.9622L219.954 96.1959L223.952 111.617C223.952 111.617 226.872 113.516 226.249 114.856C225.626 116.197 225.295 117.278 225.939 118.046C226.583 118.814 228.458 118.87 227.061 120.122C225.665 121.374 226.86 124.646 226.86 124.646L225.522 127.633L217.161 127.285L212.777 97.2271Z" fill="#3F3D56"/>
<path d="M19.4164 145.054C19.9441 144.64 20.2894 144.036 20.3789 143.371C20.4683 142.707 20.2948 142.033 19.8953 141.495C19.8124 141.386 19.7207 141.285 19.6211 141.192L23.191 132.95L19.6454 129.667L15.9759 141.487C15.6219 141.93 15.4244 142.477 15.4143 143.044C15.4043 143.611 15.5822 144.166 15.9203 144.621C16.1152 144.878 16.3589 145.094 16.6374 145.257C16.9159 145.42 17.2238 145.527 17.5435 145.571C17.8632 145.615 18.1884 145.596 18.5006 145.514C18.8128 145.432 19.1059 145.29 19.3631 145.095C19.3811 145.082 19.3988 145.068 19.4164 145.054Z" fill="#FFB6B6"/>
<path d="M40.1561 91.583C40.1561 91.583 37.5135 86.5599 31.3833 91.9845C25.2531 97.4091 18.0091 124.562 18.1498 125.582C18.2905 126.603 19.7888 126.199 17.8936 127.669C15.9984 129.139 14.9506 127.818 15.9984 129.139C17.0463 130.459 19.3896 131.858 17.3148 132.055C15.24 132.251 22.8461 135.523 22.8461 135.523C22.8461 135.523 24.0424 135.236 24.4095 132.476C24.6157 130.925 23.9171 130.045 25.1468 129.787C26.3765 129.528 25.2239 126.725 25.4009 126.284C25.5779 125.843 35.397 106.576 35.397 106.576L40.1561 91.583Z" fill="#EC058E"/>
<path d="M52.2242 214.26L56.6629 214.259L58.7749 197.138L52.2232 197.139L52.2242 214.26Z" fill="#FFB6B6"/>
<path d="M52.0676 218.89L65.7187 218.889V218.717C65.7186 217.308 65.1588 215.957 64.1623 214.96C63.1659 213.964 61.8145 213.404 60.4053 213.404H60.405L57.9114 211.513L53.259 213.404L52.0674 213.405L52.0676 218.89Z" fill="#2F2E41"/>
<path d="M21.1089 206.095L24.7401 208.648L36.3172 195.857L30.9571 192.089L21.1089 206.095Z" fill="#FFB6B6"/>
<path d="M18.3173 209.793L29.4843 217.644L29.5836 217.502C30.3941 216.35 30.7135 214.922 30.4715 213.534C30.2296 212.146 29.4461 210.911 28.2935 210.101L27.3416 207.119L22.4475 205.991L21.4727 205.305L18.3173 209.793Z" fill="#2F2E41"/>
<path d="M34.5371 129.084L34.1682 129.872C31.7437 135.051 31.1238 140.84 32.066 146.481C32.136 146.701 32.1227 146.939 32.0284 147.15C31.444 147.835 32.3608 150.813 32.8863 152.475L33.36 155.415C33.36 155.415 32.5746 158.145 33.7675 157.945C34.9605 157.744 33.184 160.656 34.322 161.386L37.2738 179.708L24.9584 200.003L29.5197 206.616L47.7647 183.129L47.9928 161.921L50.7296 179.024L50.9576 205.932L59.2557 205.05L62.2959 178.962L59.396 142.884L54.8347 127.241L34.5371 129.084Z" fill="#2F2E41"/>
<path d="M40.2384 82.1123L46.9516 82.4319L50.1617 87.9771C51.5853 88.4041 52.8948 89.1453 53.9935 90.1461C55.0922 91.1468 55.9521 92.3815 56.5097 93.759L58.6001 98.9229L56.2221 128.779C56.2221 128.779 55.7454 130.585 56.6231 130.321C57.5008 130.058 57.143 132.321 57.143 132.321L60.3779 144.761L30.9679 142.204L32.6009 129.024C32.6009 129.024 30.3304 129.097 31.9269 127.501C33.5233 125.904 34.2997 126.413 32.7661 124.526C31.2325 122.639 31.0045 121.27 31.0045 121.27L30.3203 111.921L29.1923 98.763C29.0133 96.6751 29.3562 94.5755 30.19 92.6529C31.0239 90.7304 32.3225 89.0453 33.9693 87.749L40.2384 82.1123Z" fill="#EC058E"/>
<path d="M43.7196 80.5725C48.4214 80.5725 52.233 76.7614 52.233 72.0601C52.233 67.3587 48.4214 63.5476 43.7196 63.5476C39.0177 63.5476 35.2061 67.3587 35.2061 72.0601C35.2061 76.7614 39.0177 80.5725 43.7196 80.5725Z" fill="#FFB6B6"/>
<path d="M40.43 79.8748C42.873 79.7947 43.095 79.1494 45.538 79.0693C46.3159 79.0438 47.2338 78.9372 47.6099 78.2558C47.7194 78.0006 47.7681 77.7234 47.7523 77.4461C47.7365 77.1688 47.6566 76.899 47.5188 76.6578C47.24 76.1791 46.9887 75.6848 46.7662 75.1775C46.6321 74.7797 46.5969 74.3551 46.6637 73.9406C46.7305 73.5262 46.8972 73.1342 47.1495 72.7985C47.4017 72.4629 47.7319 72.1938 48.1115 72.0144C48.4911 71.8349 48.9087 71.7507 49.3282 71.7688C50.0717 71.8009 50.7699 72.1505 51.5113 72.2144C52.5281 72.302 54.7765 68.9452 54.3083 68.0385C53.8527 67.1559 52.9356 66.4899 52.7915 65.5072C52.6972 64.8644 52.9626 64.2257 52.9988 63.5771C53.0526 62.6153 50.6143 64.7839 51.0609 63.9303C52.1563 61.8365 41.8341 59.2408 40.1347 61.8634C39.4996 62.8437 38.3677 62.7768 37.3588 63.3655C36.6976 63.7513 35.0279 65.0823 34.6483 65.912C34.2996 66.7585 34.1347 67.6695 34.1648 68.5846C34.1496 72.8403 34.798 76.7549 38.2311 79.2705" fill="#2F2E41"/>
<path d="M64.5987 144.688C64.0967 144.243 63.788 143.62 63.7384 142.951C63.6888 142.282 63.9021 141.621 64.3331 141.107C64.4223 141.003 64.5199 140.908 64.6249 140.821L61.5535 132.38L65.2887 129.315L68.2459 141.333C68.573 141.796 68.7374 142.354 68.7136 142.921C68.6898 143.487 68.4791 144.03 68.1143 144.464C67.9044 144.71 67.6483 144.911 67.3606 145.057C67.0728 145.203 66.7591 145.291 66.4374 145.316C66.1156 145.341 65.7921 145.302 65.4853 145.202C65.1785 145.102 64.8945 144.942 64.6494 144.732C64.6323 144.718 64.6154 144.703 64.5987 144.688Z" fill="#FFB6B6"/>
<path d="M47.0882 90.0746C47.0882 90.0746 50.0259 85.2182 55.8214 90.999C61.6168 96.7798 67.2269 124.316 67.0255 125.327C66.8241 126.337 65.3525 125.845 67.1566 127.425C68.9607 129.005 70.0855 127.75 68.9607 129.005C67.8358 130.261 65.4132 131.518 67.4726 131.837C69.532 132.157 61.7441 134.969 61.7441 134.969C61.7441 134.969 60.567 134.611 60.3654 131.834C60.2522 130.274 61.002 129.437 59.7899 129.106C58.5778 128.775 59.8958 126.045 59.7454 125.594C59.5951 125.143 50.9438 105.325 50.9438 105.325L47.0882 90.0746Z" fill="#EC058E"/>
<path d="M131.798 43.7846C131.799 45.1627 131.39 46.51 130.625 47.6561C129.859 48.8021 128.771 49.6955 127.498 50.2232C126.225 50.7509 124.823 50.8893 123.472 50.6207C122.12 50.3522 120.878 49.6889 119.903 48.7147C118.928 47.7404 118.264 46.499 117.995 45.1474C117.726 43.7959 117.863 42.3948 118.391 41.1215C118.918 39.8481 119.811 38.7596 120.956 37.9937C122.102 37.2278 123.449 36.8188 124.828 36.8184C125.743 36.8172 126.65 36.9965 127.496 37.3461C128.342 37.6957 129.111 38.2088 129.758 38.8558C130.406 39.5029 130.919 40.2713 131.269 41.1171C131.619 41.9628 131.799 42.8693 131.798 43.7846Z" fill="#EC058E"/>
<path d="M124.983 44.7944C126.33 44.7944 127.422 43.7028 127.422 42.3562C127.422 41.0097 126.33 39.9181 124.983 39.9181C123.636 39.9181 122.545 41.0097 122.545 42.3562C122.545 43.7028 123.636 44.7944 124.983 44.7944Z" fill="white"/>
<path d="M127.597 45.6655H122.372C122.049 45.6658 121.739 45.7944 121.51 46.0229C121.282 46.2515 121.153 46.5614 121.153 46.8846C121.227 47.9287 121.39 48.9646 121.64 49.981C122.688 50.521 123.856 50.786 125.035 50.7513C126.213 50.7166 127.363 50.3832 128.377 49.7825C128.601 48.8298 128.748 47.8607 128.816 46.8846C128.816 46.5614 128.687 46.2515 128.459 46.0229C128.23 45.7944 127.92 45.6658 127.597 45.6655Z" fill="white"/>
<path d="M1.83476e-06 219.086C-0.00016052 219.14 0.0104536 219.194 0.0312298 219.244C0.0520059 219.295 0.0825321 219.34 0.12106 219.379C0.159588 219.417 0.205356 219.448 0.255725 219.469C0.306095 219.49 0.360075 219.5 0.41456 219.5H249.585C249.695 219.5 249.801 219.456 249.879 219.379C249.956 219.301 250 219.195 250 219.086C250 218.976 249.956 218.87 249.879 218.792C249.801 218.715 249.695 218.671 249.585 218.671H0.41456C0.360075 218.671 0.306094 218.681 0.255725 218.702C0.205357 218.723 0.159593 218.754 0.121065 218.792C0.0825378 218.831 0.0520066 218.876 0.0312298 218.927C0.0104529 218.977 -0.000158671 219.031 1.83476e-06 219.086Z" fill="#CCCCCC"/>
</g>
<defs>
<clipPath id="clip0_6_16">
<rect width="250" height="219" fill="white" transform="translate(0 0.5)"/>
</clipPath>
</defs>
</svg>
